<svg xmlns="http://www.w3.org/2000/svg" fill="none" viewBox="0 0 48 48" id="Plastic-Scm--Streamline-Svg-Logos" height="48" width="48">
  <desc>
    Plastic Scm Streamline Icon: https://streamlinehq.com
  </desc>
  <path fill="#ff4300" d="m18.92845 20.34635 4.42445 -2.5333c0.40075 -0.2295 0.8931 -0.2295 1.29365 0l4.42465 2.5333c0.325 0.18615 0.5502 0.5004 0.6264 0.8587l-0.1412 0.2043 -5.55695 2.7856 -5.6007 -2.98975 -0.04695 -0.17395c0.10365 -0.28485 0.30535 -0.5295 0.57665 -0.6849Zm23.81245 -9.84865L26.39035 1.13597c-1.481 -0.847959 -3.30025 -0.847959 -4.78105 0L5.25855 10.4977c-0.923005 0.52855 -1.626965 1.33735 -2.03201 2.284l-0.00364 0.09655 3.6104 2.0057 0.0939 -0.0375c0.32835 -0.8002 0.91555 -1.48465 1.6906 -1.92855l13.41985 -7.68365c1.2155 -0.695875 2.7087 -0.695875 3.9242 0l13.4198 7.68365c0.91345 0.5231 1.56615 1.38035 1.84125 2.3673l0.23875 0.1556 3.43775 -1.7513 0.07655 -0.33445c-0.33955 -1.1912 -1.1305 -2.22495 -2.23505 -2.85735ZM15.45705 17.8453l7.45305 -4.2674c0.675 -0.38635 1.5043 -0.38635 2.1793 0l7.4531 4.2674c0.52735 0.3019 0.89755 0.8045 1.03905 1.38015l0.0597 0.0648 3.6707 -1.86055 0.0397 -0.11705c-0.2027 -0.7898 -0.71535 -1.47805 -1.4413 -1.89365L25.51895 9.4694c-0.94105 -0.53895 -2.09735 -0.53895 -3.03835 0L12.08935 15.419c-0.6033 0.34535 -1.07215 0.9111 -1.3256 1.5347l0.04645 0.1106 3.5755 2.0175 0.0868 -0.0455c0.1703 -0.4958 0.51565 -0.9225 0.98455 -1.191Z" stroke-width="0.5"></path>
  <path fill="#ff5b00" d="M41.22315 15.2853c0.0949 0.3406 0.1455 0.6964 0.1455 1.05945v15.31065c0 1.41585 -0.75805 2.72325 -1.98675 3.4267L25.9621 42.7658c-0.60775 0.348 -1.2914 0.52175 -1.9684 0.52175l-0.0853 0.0959 -0.00795 3.97545 0.0994 0.14115c0.8251 0 1.65025 -0.21195 2.39075 -0.6358L42.7412 37.5025c1.497 -0.85725 2.4207 -2.45015 2.4207 -4.1753V14.67295c0 -0.45215 -0.065 -0.89475 -0.1857 -1.31795l-3.75305 1.9303Zm-3.87115 2.02745 -3.7701 1.91265c0.0415 0.1693 0.0643 0.34455 0.0643 0.5231v8.5032c0 0.7863 -0.4211 1.5124 -1.1034 1.90305l-7.45305 4.2674c-0.3437 0.19675 -0.72745 0.2928 -1.1103 0.28915l-0.1113 0.1647 0.0387 3.8914 0.0726 0.16685c0.53115 0.0036 1.0632 -0.13045 1.5398 -0.4034l10.3914 -5.9496c0.9513 -0.54475 1.5382 -1.5572 1.5382 -2.65345V18.0724c0 -0.2597 -0.0339 -0.51445 -0.09685 -0.75965Zm-7.6541 3.8923c0.01455 0.07785 0.02845 0.19025 0.02845 0.2711v5.0479c0 0.46675 -0.2498 0.89775 -0.65485 1.1297l-4.42445 2.5333c-0.20055 0.1149 -0.4241 0.17225 -0.64745 0.1721l-0.10795 -0.1741 0.0195 -6.0845 0.0888 -0.084 5.69795 -2.8115Z" stroke-width="0.5"></path>
  <path fill="#dc2f03" d="m23.9996 24.01655 0.00015 6.34255c-0.2232 0 -0.44635 -0.05735 -0.64675 -0.1721l-4.42445 -2.53325c-0.4052 -0.23195 -0.655 -0.663 -0.655 -1.1297V21.47615c0 -0.15375 0.0271 -0.3037 0.078 -0.44405l5.64805 2.98445Zm-0.0204 10.69535c-0.3692 -0.0035 -0.7377 -0.10005 -1.069 -0.28985l-4.6058 -2.6371v8.37495l-3.97825 -2.13535 0.0276 -18.276c0 -0.24005 0.04495 -0.49135 0.11885 -0.7122l-3.70875 -2.0826c-0.1314 0.3432 -0.21295 0.7395 -0.21295 1.1186l-0.05685 17.96295 -1.9014 -1.08235c-1.22855 -0.7035 -1.96145 -1.88175 -1.96145 -3.2976V16.3447c0 -0.5226 0.104 -1.03015 0.2961 -1.4982l-3.70065 -2.06475c-0.25179 0.5884 -0.388515 1.22985 -0.388515 1.89115v18.6544c0 1.725 0.92351 3.3179 2.420515 4.17515l16.3506 9.36175C22.34955 47.28805 23.17455 47.5 23.9995 47.5l-0.0203 -12.7881Z" stroke-width="0.5"></path>
</svg>